<svg xmlns="http://www.w3.org/2000/svg" xmlns:xlink="http://www.w3.org/1999/xlink" fill="none" version="1.1" width="17.5" height="20" viewBox="0 0 17.5 20"><g transform="matrix(1,0,0,-1,0,40)"><path d="M17.5,36.875L17.5,35L17.5,36.875L17.5,35Q17.4219,33.6719,14.9219,32.7734Q12.4609,31.914099999999998,8.75,31.875Q5.03906,31.914099999999998,2.57812,32.7734Q0.078125,33.6719,0,35L0,36.875Q0.078125,38.2031,2.57812,39.101600000000005Q5.03906,39.960899999999995,8.75,40Q12.4609,39.960899999999995,14.9219,39.101600000000005Q17.4219,38.2031,17.5,36.875ZM15.3516,31.601599999999998Q16.6016,32.0312,17.5,32.7344L17.5,28.75Q17.4219,27.42188,14.9219,26.52344Q12.4609,25.66406,8.75,25.625Q5.03906,25.66406,2.57812,26.52344Q0.078125,27.42188,0,28.75L0,32.7344Q0.898438,32.0312,2.14844,31.601599999999998Q4.88281,30.664099999999998,8.75,30.625Q12.6172,30.664099999999998,15.3516,31.601599999999998ZM0,26.48438Q0.898438,25.78125,2.14844,25.35156Q4.88281,24.41406,8.75,24.375Q12.6172,24.41406,15.3516,25.35156Q16.6016,25.78125,17.5,26.48438L17.5,23.125Q17.4219,21.79688,14.9219,20.898438Q12.4609,20.0390625,8.75,20Q5.03906,20.0390625,2.57812,20.898438Q0.078125,21.79688,0,23.125L0,26.48438Z" fill="#FFFFFF" fill-opacity="1" style="mix-blend-mode:passthrough"/></g></svg>