<svg xmlns="http://www.w3.org/2000/svg" xmlns:xlink="http://www.w3.org/1999/xlink" fill="none" version="1.1" width="20" height="28" viewBox="0 0 20 28"><defs><clipPath id="master_svg0_1_648"><rect x="0" y="4" width="20" height="20" rx="0"/></clipPath></defs><g><rect x="0" y="0" width="20" height="28" rx="0" fill="#000000" fill-opacity="0" style="mix-blend-mode:passthrough"/><g clip-path="url(#master_svg0_1_648)"><g transform="matrix(1,0,0,-1,0,46.359375)"><g><path d="M1.25,40.6796875Q1.79688,40.6796875,2.14844,40.328087499999995Q2.5,39.9765875,2.5,39.4296875L2.5,26.3046875Q2.53906,25.7187475,3.125,25.6796875L18.75,25.6796875Q19.2969,25.6796875,19.6484,25.3281275Q20,24.9765675,20,24.4296875Q20,23.8828125,19.6484,23.5312495Q19.2969,23.1796875,18.75,23.1796875L3.125,23.1796875Q1.79688,23.21875,0.898438,24.0781255Q0.0390625,24.9765675,0,26.3046875L0,39.4296875Q0,39.9765875,0.351562,40.328087499999995Q0.703125,40.6796875,1.25,40.6796875ZM5,36.9296875Q5,37.4765875,5.35156,37.8280875Q5.70312,38.1796875,6.25,38.1796875L13.75,38.1796875Q14.2969,38.1796875,14.6484,37.8280875Q15,37.4765875,15,36.9296875Q15,36.3827875,14.6484,36.0312875Q14.2969,35.6796875,13.75,35.6796875L6.25,35.6796875Q5.70312,35.6796875,5.35156,36.0312875Q5,36.3827875,5,36.9296875ZM6.25,34.4296875L11.25,34.4296875L6.25,34.4296875L11.25,34.4296875Q11.7969,34.4296875,12.1484,34.0780875Q12.5,33.7265875,12.5,33.1796875Q12.5,32.6328075,12.1484,32.2812475Q11.7969,31.9296875,11.25,31.9296875L6.25,31.9296875Q5.70312,31.9296875,5.35156,32.2812475Q5,32.6328075,5,33.1796875Q5,33.7265875,5.35156,34.0780875Q5.70312,34.4296875,6.25,34.4296875ZM6.25,30.6796875L16.25,30.6796875L6.25,30.6796875L16.25,30.6796875Q16.7969,30.6796875,17.1484,30.3281275Q17.5,29.9765675,17.5,29.4296875Q17.5,28.8828075,17.1484,28.5312475Q16.7969,28.1796875,16.25,28.1796875L6.25,28.1796875Q5.70312,28.1796875,5.35156,28.5312475Q5,28.8828075,5,29.4296875Q5,29.9765675,5.35156,30.3281275Q5.70312,30.6796875,6.25,30.6796875Z" fill="#FFFFFF" fill-opacity="1" style="mix-blend-mode:passthrough"/></g></g></g></g></svg>