<svg xmlns="http://www.w3.org/2000/svg" xmlns:xlink="http://www.w3.org/1999/xlink" fill="none" version="1.1" width="10" height="16.000768661499023" viewBox="0 0 10 16.000768661499023"><g transform="matrix(1,0,0,-1,0,32.00153732299805)"><path d="M2.26027,22.657018661499023L2.26027,16.000768661499023L2.26027,22.657018661499023L2.26027,16.000768661499023L6.23288,16.000768661499023L6.23288,22.657018661499023L9.21233,22.657018661499023L9.82877,25.719518661499023L6.23288,25.719518661499023L6.23288,26.782068661499025Q6.23288,27.969568661499025,6.81507,28.500768661499023Q7.39726,29.032068661499025,8.73288,29.032068661499025Q9.58904,29.032068661499025,10,28.969568661499025L10,31.750768661499023Q9.58904,31.844568661499025,8.86986,31.938268661499023Q8.15069,32.00076866149902,7.60274,32.00076866149902Q2.19178,32.06326866149902,2.26027,27.032068661499025L2.26027,25.688268661499023L0,25.688268661499023L0,22.657018661499023L2.26027,22.657018661499023Z" fill="#9CA3AF" fill-opacity="1" style="mix-blend-mode:passthrough"/></g></svg>