<svg xmlns="http://www.w3.org/2000/svg" xmlns:xlink="http://www.w3.org/1999/xlink" fill="none" version="1.1" width="14" height="14" viewBox="0 0 14 14"><g transform="matrix(1,0,0,-1,0,28)"><path d="M7,24.5938Q5.46875,24.5625,4.46875,23.53125Q3.4375,22.53125,3.40625,21Q3.4375,19.46875,4.46875,18.46875Q5.46875,17.4375,7,17.40625Q8.53125,17.4375,9.53125,18.46875Q10.5625,19.46875,10.5938,21Q10.5625,22.53125,9.53125,23.53125Q8.53125,24.5625,7,24.5938ZM7,18.65625Q6,18.6875,5.34375,19.34375Q4.6875,20,4.65625,21Q4.6875,22,5.34375,22.65625Q6,23.3125,7,23.34375Q8,23.3125,8.65625,22.65625Q9.3125,22,9.34375,21Q9.3125,20,8.65625,19.34375Q8,18.6875,7,18.65625ZM11.5938,24.75Q11.5,23.96875,10.75,23.90625Q9.96875,23.96875,9.90625,24.75Q9.90625,25.0938,10.1562,25.3438Q10.375,25.5625,10.75,25.5625Q11.0938,25.5625,11.3438,25.3438Q11.5625,25.0938,11.5938,24.75ZM13.9688,23.875Q13.9688,25.5938,12.8125,26.8125Q11.5938,27.9688,9.90625,27.9688Q9.28125,28,8.125,28Q7,28,5.875,28Q4.71875,28,4.125,27.9688Q2.4375,27.9688,1.1875,26.8125Q0.03125,25.5938,0.0625,23.90625Q0,23.28125,0,22.125Q0,21,0,19.875Q0,18.75,0.0625,18.125Q0.03125,16.40625,1.1875,15.1875Q2.40625,14.03125,4.125,14.0625Q4.71875,14.03125,5.875,14Q7,14,8.125,14Q9.28125,14.03125,9.90625,14.0625Q11.5938,14.03125,12.8125,15.1875Q13.9688,16.40625,13.9688,18.125Q14,18.75,14,19.875Q14,21,14,22.125Q14,23.28125,13.9688,23.90625L13.9688,23.875ZM12.4688,16.875Q12.0625,15.9375,11.125,15.53125Q10.5,15.3125,9.4375,15.28125Q8.375,15.25,7.5,15.25Q7.21875,15.25,7,15.25Q6.78125,15.25,6.5,15.25Q5.625,15.25,4.5625,15.28125Q3.53125,15.3125,2.875,15.53125Q1.9375,15.9375,1.53125,16.875Q1.3125,17.53125,1.28125,18.5625Q1.25,19.625,1.25,20.5Q1.25,20.78125,1.25,21Q1.25,21.21875,1.25,21.5Q1.25,22.375,1.28125,23.4375Q1.3125,24.5,1.53125,25.125Q1.9375,26.0625,2.875,26.4688Q3.53125,26.6875,4.5625,26.7188Q5.625,26.7812,6.5,26.75Q6.78125,26.75,7,26.75Q7.21875,26.75,7.5,26.75Q8.375,26.75,9.4375,26.7188Q10.5,26.6875,11.125,26.4688Q12.0625,26.0625,12.4688,25.125Q12.6875,24.5,12.7188,23.4375Q12.7812,22.375,12.75,21.5Q12.75,21.21875,12.75,21Q12.75,20.78125,12.75,20.5Q12.7812,19.625,12.7188,18.5625Q12.6875,17.5,12.4688,16.875Z" fill="#9CA3AF" fill-opacity="1" style="mix-blend-mode:passthrough"/></g></svg>