<svg xmlns="http://www.w3.org/2000/svg" xmlns:xlink="http://www.w3.org/1999/xlink" fill="none" version="1.1" width="15" height="19.9609375" viewBox="0 0 15 19.9609375"><g transform="matrix(1,0,0,-1,0,39.921875)"><path d="M8.4375,20.4296875Q9.49219,21.7187475,11.0156,23.9062475Q12.5391,26.0546875,13.75,28.3593775Q14.9219,30.6640375,15,32.4218375Q14.9219,35.6250375,12.8125,37.734337499999995Q10.7031,39.8437375,7.5,39.921837499999995Q4.29688,39.8437375,2.1875,37.734337499999995Q0.078125,35.6250375,0,32.4218375Q0.078125,30.6640375,1.25,28.3593775Q2.46094,26.0546875,3.98438,23.9062475Q5.50781,21.7187475,6.5625,20.4296875Q6.95312,19.9609375,7.5,19.9609375Q8.04688,19.9609375,8.4375,20.4296875ZM7.5,34.9218375Q8.90625,34.8828375,9.64844,33.6718375Q10.3516,32.4218375,9.64844,31.171837500000002Q8.90625,29.9609375,7.5,29.9218775Q6.09375,29.9609375,5.35156,31.171837500000002Q4.64844,32.4218375,5.35156,33.6718375Q6.09375,34.8828375,7.5,34.9218375Z" fill="#FFFFFF" fill-opacity="1" style="mix-blend-mode:passthrough"/></g></svg>