<svg xmlns="http://www.w3.org/2000/svg" xmlns:xlink="http://www.w3.org/1999/xlink" fill="none" version="1.1" width="20" height="20" viewBox="0 0 20 20"><g transform="matrix(1,0,0,-1,0,40)"><path d="M16.25,31.875Q16.2109,29.14062,14.6875,27.07031L19.6484,22.14844Q20,21.75781,20,21.25Q20,20.742188,19.6484,20.351562Q19.2578,20,18.75,20Q18.2422,20,17.8516,20.351562L12.9297,25.3125Q10.8594,23.78906,8.125,23.75Q4.6875,23.82812,2.38281,26.13281Q0.078125,28.4375,0,31.875Q0.078125,35.3125,2.38281,37.6172Q4.6875,39.9219,8.125,40Q11.5625,39.9219,13.8672,37.6172Q16.1719,35.3125,16.25,31.875ZM8.125,26.25Q9.64844,26.25,10.9375,26.99219Q12.2266,27.73438,13.0078,29.0625Q13.75,30.3906,13.75,31.875Q13.75,33.3594,13.0078,34.6875Q12.2266,36.0156,10.9375,36.7578Q9.64844,37.5,8.125,37.5Q6.60156,37.5,5.3125,36.7578Q4.02344,36.0156,3.24219,34.6875Q2.5,33.3594,2.5,31.875Q2.5,30.3906,3.24219,29.0625Q4.02344,27.73438,5.3125,26.99219Q6.60156,26.25,8.125,26.25Z" fill="#FFFFFF" fill-opacity="1" style="mix-blend-mode:passthrough"/></g></svg>