<svg xmlns="http://www.w3.org/2000/svg" xmlns:xlink="http://www.w3.org/1999/xlink" fill="none" version="1.1" width="20" height="15" viewBox="0 0 20 15"><g transform="matrix(1,0,0,-1,0,30)"><path d="M1.875,30Q1.09375,29.960900000000002,0.546875,29.4531Q0.0390625,28.9062,0,28.125Q0.0390625,27.1875,0.742188,26.6406L9.25781,20.23438Q10,19.76562,10.7422,20.23438L19.2578,26.6406Q19.9609,27.1875,20,28.125Q19.9609,28.9062,19.4531,29.4531Q18.9062,29.960900000000002,18.125,30L1.875,30ZM0,25.625L0,17.5L0,25.625L0,17.5Q0.0390625,16.44531,0.742188,15.742188Q1.44531,15.0390625,2.5,15L17.5,15Q18.5547,15.0390625,19.2578,15.742188Q19.9609,16.44531,20,17.5L20,25.625L11.4844,19.25781Q10.8203,18.75,10,18.75Q9.17969,18.75,8.51562,19.25781L0,25.625Z" fill="#FFFFFF" fill-opacity="1" style="mix-blend-mode:passthrough"/></g></svg>