<svg xmlns="http://www.w3.org/2000/svg" xmlns:xlink="http://www.w3.org/1999/xlink" fill="none" version="1.1" width="19.922178268432617" height="20" viewBox="0 0 19.922178268432617 20"><g transform="matrix(1,0,0,-1,0,40)"><path d="M6.42023,39.023399999999995Q6.18677,39.6094,5.68093,39.8438Q5.13619,40.0781,4.55253,39.960899999999995L1.1284,39.023399999999995Q0.077821,38.6328,0,37.5Q0.0389105,32.6172,2.37354,28.67188Q4.70817,24.72656,8.63813,22.38281Q12.5681,20.0390625,17.4319,20Q18.5603,20.078125,18.9494,21.13281L19.8833,24.57031Q20,25.15625,19.7665,25.70312Q19.5331,26.21094,18.9494,26.44531L15.214,28.00781Q14.1634,28.35938,13.4241,27.53906L11.8677,25.625Q9.80545,26.60156,8.1712,28.20312Q6.57588,29.84375,5.60311,31.914099999999998L7.50973,33.4766Q8.32685,34.2187,7.97665,35.2734L6.42023,39.023399999999995Z" fill="#FFFFFF" fill-opacity="1" style="mix-blend-mode:passthrough"/></g></svg>