<svg xmlns="http://www.w3.org/2000/svg" xmlns:xlink="http://www.w3.org/1999/xlink" fill="none" version="1.1" width="16" height="13" viewBox="0 0 16 13"><g transform="matrix(1,0,0,-1,0,26)"><path d="M14.3438,22.75Q14.375,22.53125,14.375,22.34375Q14.375,20.125,13.2812,18Q12.2188,15.875,10.125,14.46875Q8.0625,13.0625,5.03125,13Q2.21875,13.03125,0,14.46875Q0.375,14.4375,0.78125,14.4375Q3.125,14.46875,4.875,15.84375Q3.75,15.875,2.9375,16.5Q2.125,17.125,1.8125,18.09375Q2.09375,18.0625,2.40625,18.0625Q2.875,18.0625,3.28125,18.15625Q2.125,18.40625,1.40625,19.28125Q0.6875,20.15625,0.65625,21.375L0.65625,21.4375Q1.3125,21.0625,2.125,21Q0.75,21.96875,0.65625,23.75Q0.6875,24.6562,1.125,25.4062Q2.34375,23.9062,4.09375,23Q5.8125,22.09375,7.875,21.96875Q7.8125,22.34375,7.8125,22.71875Q7.84375,24.0938,8.75,25.0312Q9.6875,25.9688,11.0625,26Q12.5312,25.9688,13.4688,24.9688Q14.5938,25.1875,15.5625,25.75Q15.1562,24.5938,14.125,23.9375Q15.0938,24.0625,16,24.4688Q15.3125,23.4688,14.3438,22.75Z" fill="#9CA3AF" fill-opacity="1" style="mix-blend-mode:passthrough"/></g></svg>